# xmcd
#
# Track frame offsets:
#	212
#	17087
#	31415
#	54857
#	73717
#	105832
#	126025
#	142545
#	161417
#	183780
#	197817
#
# Disc length: 2888 seconds
#
# Revision: 4
# Processed by: cddbd v1.5.2PL0 Copyright (c) Steve Scherf et al.
# Submitted via: audiograbber 1.83.01
#
DISCID=7f0b460b
DTITLE=Frank Boeijen - Wilde Bloemen
DYEAR=1991
DGENRE=
TTITLE0=Koud In Mijn Hart
TTITLE1=Het IJs
TTITLE2=Voor Niemand Bang
TTITLE3=Ze Geeft Om Mij
TTITLE4=De Koorddanser
TTITLE5=Gestolen Gevoel
TTITLE6=Een Hollandse Hemel
TTITLE7=Vaarwel
TTITLE8=Onschuld
TTITLE9=Twee Gezichten
TTITLE10=Wilde Bloemen
EXTD=
EXTT0=
EXTT1=
EXTT2=
EXTT3=
EXTT4=
EXTT5=
EXTT6=
EXTT7=
EXTT8=
EXTT9=
EXTT10=
PLAYORDER=
